{
	"asset":{
		"generator":"Khronos glTF Blender I/O v4.3.47",
		"version":"2.0"
	},
	"scene":0,
	"scenes":[
		{
			"name":"Scene",
			"nodes":[
				0,
				1,
				2,
				3,
				4,
				5,
				6,
				7,
				8,
				9,
				10,
				11,
				12,
				13,
				14,
				15
			]
		}
	],
	"nodes":[
		{
			"name":"\u7a7a\u7269\u4f53",
			"rotation":[
				0.70710688829422,
				0,
				0,
				0.7071066498756409
			],
			"translation":[
				-0.004397044889628887,
				0.008385108783841133,
				0
			]
		},
		{
			"mesh":0,
			"name":"\u73af\u4f53.003",
			"rotation":[
				0.3098759949207306,
				-0.02265033684670925,
				0.06929231435060501,
				0.9479780793190002
			],
			"scale":[
				-0.10157646983861923,
				-0.21605055034160614,
				-0.13240861892700195
			],
			"translation":[
				-0.9361271858215332,
				-0.0500020831823349,
				0.7286521196365356
			]
		},
		{
			"mesh":1,
			"name":"\u7403\u4f53.001",
			"scale":[
				-0.3340510427951813,
				-0.3340510427951813,
				-0.3607019782066345
			],
			"translation":[
				-1.0264391899108887,
				0.8112778067588806,
				0.7572442293167114
			]
		},
		{
			"mesh":2,
			"name":"\u7403\u4f53.002",
			"scale":[
				-0.3357570767402649,
				-0.3357570767402649,
				-0.3607019782066345
			],
			"translation":[
				-0.30994194746017456,
				0.528724193572998,
				0.810319721698761
			]
		},
		{
			"mesh":3,
			"name":"\u7403\u4f53.003",
			"scale":[
				0.17638228833675385,
				0.17996151745319366,
				0.1935797929763794
			],
			"translation":[
				0.5570183396339417,
				-0.10532065480947495,
				0
			]
		},
		{
			"mesh":4,
			"name":"\u7403\u4f53.004",
			"scale":[
				0.13179385662078857,
				0.13179385662078857,
				0.13179385662078857
			],
			"translation":[
				-0.9386465549468994,
				0.7090089917182922,
				1.080493688583374
			]
		},
		{
			"mesh":5,
			"name":"\u7403\u4f53.005",
			"scale":[
				0.13179385662078857,
				0.13179385662078857,
				0.13179385662078857
			],
			"translation":[
				-0.2001807689666748,
				0.44650834798812866,
				1.0815033912658691
			]
		},
		{
			"mesh":6,
			"name":"\u7acb\u65b9\u4f53",
			"rotation":[
				0.951298713684082,
				0.15335944294929504,
				-0.2672393321990967,
				0.00973788183182478
			],
			"scale":[
				-0.09098351746797562,
				-1.7929229736328125,
				-0.4053700566291809
			],
			"translation":[
				1.0086325407028198,
				-0.1374107301235199,
				-0.29990485310554504
			]
		},
		{
			"mesh":7,
			"name":"\u7acb\u65b9\u4f53.001",
			"rotation":[
				-0.7756808996200562,
				-0.27074989676475525,
				0.41588079929351807,
				0.38994458317756653
			],
			"scale":[
				0.17253327369689941,
				0.13966262340545654,
				0.07775402814149857
			],
			"translation":[
				-0.7770835757255554,
				0.29604372382164,
				0.8469524383544922
			]
		},
		{
			"mesh":8,
			"name":"\u73af\u4f53",
			"rotation":[
				-0.12769310176372528,
				0.05598755180835724,
				-0.25972384214401245,
				0.9555644989013672
			],
			"scale":[
				1.0736768245697021,
				1.4221174716949463,
				1.145275354385376
			],
			"translation":[
				-0.11043230444192886,
				1.0094462633132935,
				-0.0005041545955464244
			]
		},
		{
			"mesh":9,
			"name":"\u73af\u4f53.001",
			"rotation":[
				-0.12856298685073853,
				0.06268206238746643,
				-0.2619900107383728,
				0.9544128179550171
			],
			"scale":[
				0.7493636012077332,
				0.8594372868537903,
				0.8594372868537903
			],
			"translation":[
				0.26877614855766296,
				1.5188241004943848,
				-0.14998699724674225
			]
		},
		{
			"mesh":10,
			"name":"\u73af\u4f53.002",
			"rotation":[
				0.06482626497745514,
				0.17280957102775574,
				-0.9529202580451965,
				0.24057726562023163
			],
			"scale":[
				0.711637020111084,
				0.8845409154891968,
				0.7077519297599792
			],
			"translation":[
				0.011041924357414246,
				-0.7228977680206299,
				-0.005871932953596115
			]
		},
		{
			"mesh":11,
			"name":"\u73af\u4f53.004",
			"rotation":[
				-0.11700758337974548,
				0.06111990287899971,
				-0.2741636335849762,
				0.9525796175003052
			],
			"scale":[
				0.8602705597877502,
				0.860270619392395,
				0.860270619392395
			],
			"translation":[
				0.42430058121681213,
				1.834808349609375,
				-0.23455113172531128
			]
		},
		{
			"mesh":12,
			"name":"\u73af\u4f53.005",
			"rotation":[
				0.04143459349870682,
				0.13849171996116638,
				-0.9713258743286133,
				0.18875770270824432
			],
			"scale":[
				1.0537049770355225,
				1.0537049770355225,
				1.0537049770355225
			],
			"translation":[
				0.085208959877491,
				-1.0316318273544312,
				-0.0004749497747980058
			]
		},
		{
			"mesh":13,
			"name":"\u7403\u4f53",
			"rotation":[
				0.007792059797793627,
				0.025043917819857597,
				-0.2231355607509613,
				0.974434494972229
			],
			"scale":[
				0.9895368814468384,
				1.1092708110809326,
				0.9895370006561279
			],
			"translation":[
				-0.4290553629398346,
				0.4094425439834595,
				-0.0032867046538740396
			]
		},
		{
			"mesh":14,
			"name":"\u9525\u4f53",
			"rotation":[
				0,
				0,
				0.07762530446052551,
				0.9969826340675354
			],
			"scale":[
				1.724018931388855,
				1.724018931388855,
				1.724018931388855
			],
			"translation":[
				0.2316838800907135,
				-1.5721405744552612,
				0
			]
		}
	],
	"materials":[
		{
			"doubleSided":true,
			"name":"\u6750\u8d28.005",
			"pbrMetallicRoughness":{
				"baseColorFactor":[
					0.8000229597091675,
					0.08385945111513138,
					0.07810888439416885,
					1
				],
				"metallicFactor":0,
				"roughnessFactor":0.5
			}
		},
		{
			"doubleSided":true,
			"name":"\u6750\u8d28.001",
			"pbrMetallicRoughness":{
				"baseColorFactor":[
					0.800000011920929,
					0.800000011920929,
					0.800000011920929,
					1
				],
				"metallicFactor":0,
				"roughnessFactor":0.5
			}
		},
		{
			"doubleSided":true,
			"name":"\u6750\u8d28.006",
			"pbrMetallicRoughness":{
				"baseColorFactor":[
					0.800000011920929,
					0.800000011920929,
					0.800000011920929,
					1
				],
				"metallicFactor":0.5555555820465088,
				"roughnessFactor":0.40909090638160706
			}
		},
		{
			"doubleSided":true,
			"name":"\u6750\u8d28.003",
			"pbrMetallicRoughness":{
				"baseColorFactor":[
					0.06300961226224899,
					0.063010074198246,
					0.06301004439592361,
					1
				],
				"metallicFactor":0,
				"roughnessFactor":0.5
			}
		},
		{
			"doubleSided":true,
			"name":"\u6750\u8d28.002",
			"pbrMetallicRoughness":{
				"baseColorFactor":[
					0.06300961226224899,
					0.063010074198246,
					0.06301004439592361,
					1
				],
				"metallicFactor":0,
				"roughnessFactor":0.5
			}
		},
		{
			"doubleSided":true,
			"name":"skin.003",
			"pbrMetallicRoughness":{
				"baseColorFactor":[
					0.799098551273346,
					0.33716392517089844,
					0.048171937465667725,
					1
				],
				"metallicFactor":0,
				"roughnessFactor":0.5
			}
		},
		{
			"doubleSided":true,
			"name":"\u6750\u8d28.004",
			"pbrMetallicRoughness":{
				"baseColorFactor":[
					0.7990982532501221,
					0.3813263177871704,
					0.4396572709083557,
					1
				],
				"metallicFactor":0,
				"roughnessFactor":0.5
			}
		},
		{
			"doubleSided":true,
			"name":"skin.001",
			"pbrMetallicRoughness":{
				"baseColorFactor":[
					0.02180827036499977,
					0.08091660588979721,
					0.8000156879425049,
					1
				],
				"metallicFactor":0,
				"roughnessFactor":0.5
			}
		},
		{
			"doubleSided":true,
			"name":"\u6750\u8d28",
			"pbrMetallicRoughness":{
				"baseColorFactor":[
					0.799098551273346,
					0.33716392517089844,
					0.048171937465667725,
					1
				],
				"metallicFactor":0,
				"roughnessFactor":0.5
			}
		},
		{
			"doubleSided":true,
			"name":"\u6750\u8d28.007",
			"pbrMetallicRoughness":{
				"baseColorFactor":[
					0.6543571352958679,
					0.5479807257652283,
					0.5479807257652283,
					1
				],
				"metallicFactor":0.34343433380126953,
				"roughnessFactor":0.5
			}
		},
		{
			"doubleSided":true,
			"name":"skin.002",
			"pbrMetallicRoughness":{
				"baseColorFactor":[
					0.799098551273346,
					0.33716392517089844,
					0.048171937465667725,
					1
				],
				"metallicFactor":0,
				"roughnessFactor":0.5
			}
		},
		{
			"doubleSided":true,
			"name":"\u6750\u8d28.008",
			"pbrMetallicRoughness":{
				"baseColorFactor":[
					0.8000156879425049,
					0.17838989198207855,
					0.03346898779273033,
					1
				],
				"metallicFactor":0,
				"roughnessFactor":0.5
			}
		},
		{
			"doubleSided":true,
			"name":"skin",
			"pbrMetallicRoughness":{
				"baseColorFactor":[
					0.7990982532501221,
					0.3813263177871704,
					0.4396572709083557,
					1
				],
				"metallicFactor":0,
				"roughnessFactor":0.5
			}
		},
		{
			"doubleSided":true,
			"name":"\u6750\u8d28.009",
			"pbrMetallicRoughness":{
				"baseColorFactor":[
					0.8000229597091675,
					0.3363160192966461,
					0.0753718838095665,
					1
				],
				"metallicFactor":0,
				"roughnessFactor":0.5
			}
		}
	],
	"meshes":[
		{
			"name":"\u73af\u4f53.002",
			"primitives":[
				{
					"attributes":{
						"POSITION":0,
						"NORMAL":1,
						"TEXCOORD_0":2
					},
					"indices":3,
					"material":0
				}
			]
		},
		{
			"name":"\u7403\u4f53.001",
			"primitives":[
				{
					"attributes":{
						"POSITION":4,
						"NORMAL":5,
						"TEXCOORD_0":6
					},
					"indices":7
				}
			]
		},
		{
			"name":"\u7403\u4f53.002",
			"primitives":[
				{
					"attributes":{
						"POSITION":8,
						"NORMAL":9,
						"TEXCOORD_0":10
					},
					"indices":7,
					"material":1
				}
			]
		},
		{
			"name":"\u7403\u4f53.003",
			"primitives":[
				{
					"attributes":{
						"POSITION":11,
						"NORMAL":12,
						"TEXCOORD_0":13
					},
					"indices":14,
					"material":2
				}
			]
		},
		{
			"name":"\u7403\u4f53.004",
			"primitives":[
				{
					"attributes":{
						"POSITION":15,
						"NORMAL":16,
						"TEXCOORD_0":17
					},
					"indices":18,
					"material":3
				}
			]
		},
		{
			"name":"\u7403\u4f53.005",
			"primitives":[
				{
					"attributes":{
						"POSITION":19,
						"NORMAL":20,
						"TEXCOORD_0":21
					},
					"indices":18,
					"material":4
				}
			]
		},
		{
			"name":"\u7acb\u65b9\u4f53",
			"primitives":[
				{
					"attributes":{
						"POSITION":22,
						"NORMAL":23,
						"TEXCOORD_0":24
					},
					"indices":25,
					"material":5
				}
			]
		},
		{
			"name":"\u7acb\u65b9\u4f53.001",
			"primitives":[
				{
					"attributes":{
						"POSITION":26,
						"NORMAL":27,
						"TEXCOORD_0":28
					},
					"indices":25,
					"material":6
				}
			]
		},
		{
			"name":"\u73af\u4f53",
			"primitives":[
				{
					"attributes":{
						"POSITION":29,
						"NORMAL":30,
						"TEXCOORD_0":31
					},
					"indices":32,
					"material":7
				}
			]
		},
		{
			"name":"\u73af\u4f53.001",
			"primitives":[
				{
					"attributes":{
						"POSITION":33,
						"NORMAL":34,
						"TEXCOORD_0":35
					},
					"indices":36,
					"material":8
				}
			]
		},
		{
			"name":"\u73af\u4f53.006",
			"primitives":[
				{
					"attributes":{
						"POSITION":37,
						"NORMAL":38,
						"TEXCOORD_0":39
					},
					"indices":40,
					"material":9
				}
			]
		},
		{
			"name":"\u73af\u4f53.004",
			"primitives":[
				{
					"attributes":{
						"POSITION":41,
						"NORMAL":42,
						"TEXCOORD_0":43
					},
					"indices":36,
					"material":10
				}
			]
		},
		{
			"name":"\u73af\u4f53.005",
			"primitives":[
				{
					"attributes":{
						"POSITION":44,
						"NORMAL":45,
						"TEXCOORD_0":46
					},
					"indices":40,
					"material":11
				}
			]
		},
		{
			"name":"\u7403\u4f53",
			"primitives":[
				{
					"attributes":{
						"POSITION":47,
						"NORMAL":48,
						"TEXCOORD_0":49
					},
					"indices":50,
					"material":12
				}
			]
		},
		{
			"name":"\u9525\u4f53",
			"primitives":[
				{
					"attributes":{
						"POSITION":51,
						"NORMAL":52,
						"TEXCOORD_0":53
					},
					"indices":54,
					"material":13
				}
			]
		}
	],
	"accessors":[
		{
			"bufferView":0,
			"componentType":5126,
			"count":637,
			"max":[
				0.9000000357627869,
				0.10000000894069672,
				0.9000000357627869
			],
			"min":[
				-0.9000000357627869,
				-0.10000000894069672,
				-0.9000000357627869
			],
			"type":"VEC3"
		},
		{
			"bufferView":1,
			"componentType":5126,
			"count":637,
			"type":"VEC3"
		},
		{
			"bufferView":2,
			"componentType":5126,
			"count":637,
			"type":"VEC2"
		},
		{
			"bufferView":3,
			"componentType":5123,
			"count":3456,
			"type":"SCALAR"
		},
		{
			"bufferView":4,
			"componentType":5126,
			"count":559,
			"max":[
				0.9999997019767761,
				1,
				0.9999993443489075
			],
			"min":[
				-0.9999990463256836,
				-1,
				-1
			],
			"type":"VEC3"
		},
		{
			"bufferView":5,
			"componentType":5126,
			"count":559,
			"type":"VEC3"
		},
		{
			"bufferView":6,
			"componentType":5126,
			"count":559,
			"type":"VEC2"
		},
		{
			"bufferView":7,
			"componentType":5123,
			"count":2880,
			"type":"SCALAR"
		},
		{
			"bufferView":8,
			"componentType":5126,
			"count":559,
			"max":[
				0.9999997019767761,
				1,
				0.9999993443489075
			],
			"min":[
				-0.9999990463256836,
				-1,
				-1
			],
			"type":"VEC3"
		},
		{
			"bufferView":9,
			"componentType":5126,
			"count":559,
			"type":"VEC3"
		},
		{
			"bufferView":10,
			"componentType":5126,
			"count":559,
			"type":"VEC2"
		},
		{
			"bufferView":11,
			"componentType":5126,
			"count":559,
			"max":[
				0.9999997019767761,
				1,
				0.9999993443489075
			],
			"min":[
				-0.9999990463256836,
				-1,
				-1
			],
			"type":"VEC3"
		},
		{
			"bufferView":12,
			"componentType":5126,
			"count":559,
			"type":"VEC3"
		},
		{
			"bufferView":13,
			"componentType":5126,
			"count":559,
			"type":"VEC2"
		},
		{
			"bufferView":14,
			"componentType":5123,
			"count":2880,
			"type":"SCALAR"
		},
		{
			"bufferView":15,
			"componentType":5126,
			"count":559,
			"max":[
				0.9999997019767761,
				1,
				0.9999993443489075
			],
			"min":[
				-0.9999990463256836,
				-1,
				-1
			],
			"type":"VEC3"
		},
		{
			"bufferView":16,
			"componentType":5126,
			"count":559,
			"type":"VEC3"
		},
		{
			"bufferView":17,
			"componentType":5126,
			"count":559,
			"type":"VEC2"
		},
		{
			"bufferView":18,
			"componentType":5123,
			"count":2880,
			"type":"SCALAR"
		},
		{
			"bufferView":19,
			"componentType":5126,
			"count":559,
			"max":[
				0.9999997019767761,
				1,
				0.9999993443489075
			],
			"min":[
				-0.9999990463256836,
				-1,
				-1
			],
			"type":"VEC3"
		},
		{
			"bufferView":20,
			"componentType":5126,
			"count":559,
			"type":"VEC3"
		},
		{
			"bufferView":21,
			"componentType":5126,
			"count":559,
			"type":"VEC2"
		},
		{
			"bufferView":22,
			"componentType":5126,
			"count":14,
			"max":[
				1,
				1,
				1
			],
			"min":[
				-1,
				-1,
				-1
			],
			"type":"VEC3"
		},
		{
			"bufferView":23,
			"componentType":5126,
			"count":14,
			"type":"VEC3"
		},
		{
			"bufferView":24,
			"componentType":5126,
			"count":14,
			"type":"VEC2"
		},
		{
			"bufferView":25,
			"componentType":5123,
			"count":36,
			"type":"SCALAR"
		},
		{
			"bufferView":26,
			"componentType":5126,
			"count":14,
			"max":[
				1,
				1,
				1
			],
			"min":[
				-1,
				-1,
				-1
			],
			"type":"VEC3"
		},
		{
			"bufferView":27,
			"componentType":5126,
			"count":14,
			"type":"VEC3"
		},
		{
			"bufferView":28,
			"componentType":5126,
			"count":14,
			"type":"VEC2"
		},
		{
			"bufferView":29,
			"componentType":5126,
			"count":1885,
			"max":[
				1.130000114440918,
				0.3299999237060547,
				1.130000114440918
			],
			"min":[
				-1.130000114440918,
				-0.3299999237060547,
				-1.130000114440918
			],
			"type":"VEC3"
		},
		{
			"bufferView":30,
			"componentType":5126,
			"count":1885,
			"type":"VEC3"
		},
		{
			"bufferView":31,
			"componentType":5126,
			"count":1885,
			"type":"VEC2"
		},
		{
			"bufferView":32,
			"componentType":5123,
			"count":10752,
			"type":"SCALAR"
		},
		{
			"bufferView":33,
			"componentType":5126,
			"count":1479,
			"max":[
				1.0800001621246338,
				0.2799999713897705,
				1.0778690576553345
			],
			"min":[
				-1.0800001621246338,
				-0.2799999713897705,
				-1.0778690576553345
			],
			"type":"VEC3"
		},
		{
			"bufferView":34,
			"componentType":5126,
			"count":1479,
			"type":"VEC3"
		},
		{
			"bufferView":35,
			"componentType":5126,
			"count":1479,
			"type":"VEC2"
		},
		{
			"bufferView":36,
			"componentType":5123,
			"count":8400,
			"type":"SCALAR"
		},
		{
			"bufferView":37,
			"componentType":5126,
			"count":1554,
			"max":[
				0.8600001335144043,
				0.2799999713897705,
				0.8593690991401672
			],
			"min":[
				-0.8574767112731934,
				-0.2799999713897705,
				-0.8593690991401672
			],
			"type":"VEC3"
		},
		{
			"bufferView":38,
			"componentType":5126,
			"count":1554,
			"type":"VEC3"
		},
		{
			"bufferView":39,
			"componentType":5126,
			"count":1554,
			"type":"VEC2"
		},
		{
			"bufferView":40,
			"componentType":5123,
			"count":8856,
			"type":"SCALAR"
		},
		{
			"bufferView":41,
			"componentType":5126,
			"count":1479,
			"max":[
				0.5600001811981201,
				0.2799999713897705,
				0.5588951706886292
			],
			"min":[
				-0.5600001811981201,
				-0.2799999713897705,
				-0.5588951706886292
			],
			"type":"VEC3"
		},
		{
			"bufferView":42,
			"componentType":5126,
			"count":1479,
			"type":"VEC3"
		},
		{
			"bufferView":43,
			"componentType":5126,
			"count":1479,
			"type":"VEC2"
		},
		{
			"bufferView":44,
			"componentType":5126,
			"count":1554,
			"max":[
				0.8600001335144043,
				0.2799999713897705,
				0.8593690991401672
			],
			"min":[
				-0.8574767112731934,
				-0.2799999713897705,
				-0.8593690991401672
			],
			"type":"VEC3"
		},
		{
			"bufferView":45,
			"componentType":5126,
			"count":1554,
			"type":"VEC3"
		},
		{
			"bufferView":46,
			"componentType":5126,
			"count":1554,
			"type":"VEC2"
		},
		{
			"bufferView":47,
			"componentType":5126,
			"count":559,
			"max":[
				0.9999997019767761,
				1,
				0.9999993443489075
			],
			"min":[
				-0.9999990463256836,
				-1,
				-1
			],
			"type":"VEC3"
		},
		{
			"bufferView":48,
			"componentType":5126,
			"count":559,
			"type":"VEC3"
		},
		{
			"bufferView":49,
			"componentType":5126,
			"count":559,
			"type":"VEC2"
		},
		{
			"bufferView":50,
			"componentType":5123,
			"count":2880,
			"type":"SCALAR"
		},
		{
			"bufferView":51,
			"componentType":5126,
			"count":150,
			"max":[
				0.9191710352897644,
				1,
				0.9166857004165649
			],
			"min":[
				-0.9191710352897644,
				-1,
				-0.9200000166893005
			],
			"type":"VEC3"
		},
		{
			"bufferView":52,
			"componentType":5126,
			"count":150,
			"type":"VEC3"
		},
		{
			"bufferView":53,
			"componentType":5126,
			"count":150,
			"type":"VEC2"
		},
		{
			"bufferView":54,
			"componentType":5123,
			"count":432,
			"type":"SCALAR"
		}
	],
	"bufferViews":[
		{
			"buffer":0,
			"byteLength":7644,
			"byteOffset":0,
			"target":34962
		},
		{
			"buffer":0,
			"byteLength":7644,
			"byteOffset":7644,
			"target":34962
		},
		{
			"buffer":0,
			"byteLength":5096,
			"byteOffset":15288,
			"target":34962
		},
		{
			"buffer":0,
			"byteLength":6912,
			"byteOffset":20384,
			"target":34963
		},
		{
			"buffer":0,
			"byteLength":6708,
			"byteOffset":27296,
			"target":34962
		},
		{
			"buffer":0,
			"byteLength":6708,
			"byteOffset":34004,
			"target":34962
		},
		{
			"buffer":0,
			"byteLength":4472,
			"byteOffset":40712,
			"target":34962
		},
		{
			"buffer":0,
			"byteLength":5760,
			"byteOffset":45184,
			"target":34963
		},
		{
			"buffer":0,
			"byteLength":6708,
			"byteOffset":50944,
			"target":34962
		},
		{
			"buffer":0,
			"byteLength":6708,
			"byteOffset":57652,
			"target":34962
		},
		{
			"buffer":0,
			"byteLength":4472,
			"byteOffset":64360,
			"target":34962
		},
		{
			"buffer":0,
			"byteLength":6708,
			"byteOffset":68832,
			"target":34962
		},
		{
			"buffer":0,
			"byteLength":6708,
			"byteOffset":75540,
			"target":34962
		},
		{
			"buffer":0,
			"byteLength":4472,
			"byteOffset":82248,
			"target":34962
		},
		{
			"buffer":0,
			"byteLength":5760,
			"byteOffset":86720,
			"target":34963
		},
		{
			"buffer":0,
			"byteLength":6708,
			"byteOffset":92480,
			"target":34962
		},
		{
			"buffer":0,
			"byteLength":6708,
			"byteOffset":99188,
			"target":34962
		},
		{
			"buffer":0,
			"byteLength":4472,
			"byteOffset":105896,
			"target":34962
		},
		{
			"buffer":0,
			"byteLength":5760,
			"byteOffset":110368,
			"target":34963
		},
		{
			"buffer":0,
			"byteLength":6708,
			"byteOffset":116128,
			"target":34962
		},
		{
			"buffer":0,
			"byteLength":6708,
			"byteOffset":122836,
			"target":34962
		},
		{
			"buffer":0,
			"byteLength":4472,
			"byteOffset":129544,
			"target":34962
		},
		{
			"buffer":0,
			"byteLength":168,
			"byteOffset":134016,
			"target":34962
		},
		{
			"buffer":0,
			"byteLength":168,
			"byteOffset":134184,
			"target":34962
		},
		{
			"buffer":0,
			"byteLength":112,
			"byteOffset":134352,
			"target":34962
		},
		{
			"buffer":0,
			"byteLength":72,
			"byteOffset":134464,
			"target":34963
		},
		{
			"buffer":0,
			"byteLength":168,
			"byteOffset":134536,
			"target":34962
		},
		{
			"buffer":0,
			"byteLength":168,
			"byteOffset":134704,
			"target":34962
		},
		{
			"buffer":0,
			"byteLength":112,
			"byteOffset":134872,
			"target":34962
		},
		{
			"buffer":0,
			"byteLength":22620,
			"byteOffset":134984,
			"target":34962
		},
		{
			"buffer":0,
			"byteLength":22620,
			"byteOffset":157604,
			"target":34962
		},
		{
			"buffer":0,
			"byteLength":15080,
			"byteOffset":180224,
			"target":34962
		},
		{
			"buffer":0,
			"byteLength":21504,
			"byteOffset":195304,
			"target":34963
		},
		{
			"buffer":0,
			"byteLength":17748,
			"byteOffset":216808,
			"target":34962
		},
		{
			"buffer":0,
			"byteLength":17748,
			"byteOffset":234556,
			"target":34962
		},
		{
			"buffer":0,
			"byteLength":11832,
			"byteOffset":252304,
			"target":34962
		},
		{
			"buffer":0,
			"byteLength":16800,
			"byteOffset":264136,
			"target":34963
		},
		{
			"buffer":0,
			"byteLength":18648,
			"byteOffset":280936,
			"target":34962
		},
		{
			"buffer":0,
			"byteLength":18648,
			"byteOffset":299584,
			"target":34962
		},
		{
			"buffer":0,
			"byteLength":12432,
			"byteOffset":318232,
			"target":34962
		},
		{
			"buffer":0,
			"byteLength":17712,
			"byteOffset":330664,
			"target":34963
		},
		{
			"buffer":0,
			"byteLength":17748,
			"byteOffset":348376,
			"target":34962
		},
		{
			"buffer":0,
			"byteLength":17748,
			"byteOffset":366124,
			"target":34962
		},
		{
			"buffer":0,
			"byteLength":11832,
			"byteOffset":383872,
			"target":34962
		},
		{
			"buffer":0,
			"byteLength":18648,
			"byteOffset":395704,
			"target":34962
		},
		{
			"buffer":0,
			"byteLength":18648,
			"byteOffset":414352,
			"target":34962
		},
		{
			"buffer":0,
			"byteLength":12432,
			"byteOffset":433000,
			"target":34962
		},
		{
			"buffer":0,
			"byteLength":6708,
			"byteOffset":445432,
			"target":34962
		},
		{
			"buffer":0,
			"byteLength":6708,
			"byteOffset":452140,
			"target":34962
		},
		{
			"buffer":0,
			"byteLength":4472,
			"byteOffset":458848,
			"target":34962
		},
		{
			"buffer":0,
			"byteLength":5760,
			"byteOffset":463320,
			"target":34963
		},
		{
			"buffer":0,
			"byteLength":1800,
			"byteOffset":469080,
			"target":34962
		},
		{
			"buffer":0,
			"byteLength":1800,
			"byteOffset":470880,
			"target":34962
		},
		{
			"buffer":0,
			"byteLength":1200,
			"byteOffset":472680,
			"target":34962
		},
		{
			"buffer":0,
			"byteLength":864,
			"byteOffset":473880,
			"target":34963
		}
	],
	"buffers":[
		{
			"byteLength":474744,
			"uri":"%E7%8F%8D%E7%8F%A0%E8%80%B3%E7%8E%AF%E5%B0%91%E5%A5%B3.bin"
		}
	]
}
